<?xml version="1.0" standalone="no"?>
<!DOCTYPE svg PUBLIC "-//W3C//DTD SVG 20010904//EN"
 "http://www.w3.org/TR/2001/REC-SVG-20010904/DTD/svg10.dtd">
<svg version="1.0" xmlns="http://www.w3.org/2000/svg"
 width="2560.000000pt" height="2560.000000pt" viewBox="0 0 2560.000000 2560.000000"
 preserveAspectRatio="xMidYMid meet">
<metadata>
Created by potrace 1.14, written by Peter Selinger 2001-2017
</metadata>
<g transform="translate(0.000000,2560.000000) scale(0.100000,-0.100000)"
fill="#000000" stroke="none">
<path d="M5740 23494 c-152 -19 -339 -63 -364 -86 -6 -4 -20 -8 -33 -8 -13 0
-23 -4 -23 -10 0 -5 -9 -10 -20 -10 -11 0 -20 -4 -20 -10 0 -5 -11 -10 -25
-10 -14 0 -25 -3 -25 -8 0 -4 -21 -18 -47 -31 -55 -28 -166 -102 -171 -113 -2
-5 -9 -8 -16 -8 -7 0 -22 -10 -33 -22 -12 -13 -44 -45 -72 -71 -28 -27 -51
-53 -51 -58 0 -5 -7 -9 -15 -9 -9 0 -20 -11 -25 -24 -5 -13 -17 -29 -27 -35
-10 -6 -14 -11 -10 -11 4 0 -2 -11 -15 -24 -13 -13 -32 -38 -43 -57 -11 -18
-25 -42 -31 -52 -7 -10 -17 -24 -23 -30 -6 -6 -11 -17 -11 -25 0 -8 -9 -25
-20 -39 -11 -14 -20 -34 -20 -44 0 -11 -5 -19 -12 -19 -6 0 -8 -3 -5 -7 4 -3
3 -11 -2 -17 -16 -20 -61 -151 -63 -183 -1 -7 -6 -13 -11 -13 -6 0 -8 -2 -5
-6 3 -3 2 -22 -3 -42 -5 -20 -12 -61 -15 -90 -6 -54 -11 -87 -14 -87 -13 0
-23 -455 -10 -490 4 -11 10 -45 14 -75 4 -30 13 -102 22 -160 8 -58 17 -127
20 -155 4 -27 8 -54 9 -60 8 -39 16 -86 19 -120 3 -22 12 -76 20 -120 9 -44
19 -100 22 -125 2 -25 7 -52 9 -60 2 -8 7 -28 10 -45 5 -33 12 -66 20 -92 2
-10 13 -61 24 -113 11 -52 22 -103 26 -112 4 -9 13 -45 21 -80 8 -35 16 -71
19 -80 6 -20 13 -50 19 -75 2 -10 12 -45 22 -78 10 -33 18 -62 19 -65 0 -3 6
-21 13 -40 6 -19 13 -47 16 -62 2 -14 9 -35 15 -46 6 -12 11 -31 11 -45 0 -13
3 -27 7 -31 6 -6 29 -63 38 -96 2 -8 20 -60 40 -115 20 -55 42 -118 49 -140 8
-22 19 -53 26 -70 8 -16 14 -33 14 -36 1 -5 19 -47 72 -167 13 -29 24 -59 24
-67 0 -8 5 -15 10 -15 6 0 10 -6 10 -14 0 -8 19 -54 42 -103 23 -48 41 -91 40
-95 -1 -5 2 -8 7 -8 7 0 22 -36 20 -49 0 -2 3 -7 8 -10 13 -9 55 -91 47 -91
-4 0 1 -9 11 -20 10 -11 14 -20 10 -20 -4 0 -2 -8 6 -17 15 -20 29 -44 62
-106 11 -23 34 -62 49 -86 15 -24 25 -48 22 -52 -3 -5 -1 -9 5 -9 5 0 16 -12
24 -27 8 -16 22 -43 31 -60 10 -18 22 -33 27 -33 5 0 9 -7 9 -16 0 -9 13 -33
30 -54 16 -20 27 -40 23 -44 -3 -3 -1 -6 6 -6 7 0 10 -4 7 -9 -4 -5 -3 -11 2
-13 4 -1 30 -37 56 -78 27 -41 60 -86 73 -100 13 -14 23 -28 23 -33 0 -10 81
-121 92 -125 4 -2 8 -10 8 -18 0 -8 7 -17 15 -20 8 -4 12 -10 9 -15 -3 -5 -1
-9 5 -9 6 0 16 -11 23 -24 7 -13 25 -39 40 -57 16 -19 64 -79 109 -134 45 -55
86 -103 93 -107 6 -4 8 -8 4 -8 -4 0 15 -22 41 -49 27 -28 46 -52 43 -55 -3
-4 0 -6 7 -6 7 0 9 -5 5 -12 -4 -6 -3 -8 3 -5 5 3 24 -11 41 -31 63 -76 80
-92 91 -92 6 0 11 -5 11 -11 0 -7 14 -25 30 -41 25 -24 29 -32 20 -48 -6 -11
-16 -20 -23 -20 -7 0 -18 -9 -25 -20 -7 -11 -17 -20 -22 -20 -6 0 -24 -13 -40
-30 -16 -16 -33 -30 -37 -30 -5 0 -14 -9 -21 -20 -7 -11 -17 -20 -22 -20 -5 0
-53 -43 -105 -95 -53 -52 -100 -95 -105 -95 -6 0 -10 -4 -10 -10 0 -5 -10 -20
-22 -33 -60 -62 -108 -116 -108 -122 0 -4 -12 -19 -28 -33 -15 -15 -38 -42
-52 -60 -14 -18 -33 -43 -42 -54 -10 -12 -18 -24 -18 -27 0 -3 -14 -22 -30
-41 -16 -19 -35 -41 -40 -47 -6 -7 -8 -13 -5 -13 4 0 0 -7 -7 -15 -31 -34 -38
-45 -31 -45 4 0 0 -5 -9 -11 -10 -5 -18 -17 -18 -24 0 -8 -4 -15 -9 -15 -5 0
-13 -10 -17 -22 -4 -13 -18 -38 -32 -55 -13 -18 -20 -33 -16 -33 5 0 5 -4 -1
-8 -10 -7 -27 -36 -67 -113 -13 -24 -26 -45 -30 -47 -5 -2 -8 -9 -8 -16 0 -7
-12 -35 -26 -62 -14 -27 -38 -78 -52 -114 -14 -36 -30 -68 -36 -72 -6 -4 -8
-8 -3 -8 4 0 1 -12 -7 -27 -19 -39 -106 -302 -106 -324 0 -10 -5 -21 -11 -24
-5 -4 -8 -12 -6 -18 2 -7 0 -20 -5 -30 -10 -20 -17 -45 -24 -96 -2 -19 -7 -37
-9 -41 -3 -4 -7 -25 -10 -46 -5 -32 -11 -65 -20 -94 -2 -7 -15 -116 -20 -165
-2 -22 -6 -53 -9 -70 -16 -92 -29 -525 -17 -549 3 -6 6 -35 7 -65 2 -51 6 -83
19 -176 2 -16 7 -55 10 -85 10 -83 11 -93 18 -115 4 -11 9 -36 12 -55 8 -60
55 -253 72 -300 4 -8 7 -19 9 -25 7 -26 65 -193 74 -212 6 -13 14 -33 18 -45
5 -13 21 -49 35 -81 15 -31 27 -64 27 -72 0 -8 5 -15 12 -15 6 0 8 -3 5 -6 -3
-4 3 -18 13 -32 11 -13 20 -30 20 -36 0 -18 24 -66 33 -66 5 0 5 -4 2 -10 -3
-5 -1 -10 4 -10 6 0 11 -9 11 -20 0 -11 3 -20 8 -20 4 0 13 -13 20 -30 7 -16
24 -45 37 -65 14 -19 21 -35 17 -35 -4 0 -2 -4 4 -8 6 -4 23 -28 38 -54 15
-27 32 -48 37 -48 5 0 8 -4 7 -9 -3 -9 39 -71 86 -127 15 -19 24 -34 20 -34
-5 0 -4 -4 2 -8 5 -4 23 -25 40 -47 16 -21 36 -47 44 -56 8 -9 38 -43 65 -75
28 -32 62 -70 77 -85 15 -15 25 -29 23 -31 -2 -1 12 -14 31 -28 18 -14 36 -32
39 -40 3 -8 21 -26 39 -40 19 -14 32 -28 29 -32 -2 -5 1 -8 8 -8 6 0 19 -8 28
-18 9 -10 45 -42 81 -72 35 -30 70 -59 76 -65 6 -5 26 -21 44 -35 19 -14 46
-35 61 -47 15 -13 30 -23 34 -23 11 0 35 -28 35 -40 0 -13 -69 -5 -84 10 -6 6
-20 10 -32 10 -13 0 -25 4 -28 8 -2 4 -19 9 -38 10 -18 2 -37 7 -42 12 -6 6
-20 10 -32 10 -13 0 -26 5 -29 10 -3 5 -17 10 -30 10 -13 0 -26 4 -30 9 -3 6
-13 10 -23 10 -9 0 -71 11 -137 25 -210 45 -312 60 -505 77 -163 14 -565 19
-646 8 -33 -4 -93 -9 -134 -10 -41 -1 -84 -5 -96 -10 -11 -4 -43 -8 -70 -10
-27 -1 -56 -6 -64 -10 -8 -4 -45 -10 -83 -13 -37 -3 -77 -11 -90 -17 -12 -7
-24 -11 -27 -10 -3 1 -25 -1 -50 -5 -25 -5 -49 -9 -55 -9 -5 -1 -17 -4 -25 -7
-8 -3 -35 -11 -60 -18 -25 -7 -67 -21 -94 -31 -27 -10 -60 -19 -73 -19 -13 0
-37 -7 -54 -15 -16 -9 -34 -13 -39 -10 -6 3 -10 1 -10 -4 0 -6 -11 -11 -25
-11 -14 0 -25 -3 -25 -8 0 -8 -71 -32 -95 -32 -9 0 -13 -4 -10 -10 3 -5 -2
-10 -13 -10 -10 0 -46 -14 -80 -30 -34 -17 -66 -30 -70 -30 -8 0 -214 -102
-222 -110 -6 -6 -42 -27 -95 -54 -22 -12 -42 -23 -45 -26 -3 -3 -15 -11 -27
-17 -13 -7 -33 -19 -45 -25 -13 -7 -30 -21 -39 -30 -9 -10 -23 -18 -32 -18 -9
0 -20 -6 -24 -14 -4 -7 -25 -22 -45 -33 -21 -11 -35 -23 -31 -27 3 -3 1 -6 -6
-6 -7 0 -18 -6 -25 -12 -7 -7 -24 -21 -37 -31 -13 -9 -39 -28 -56 -41 -18 -12
-30 -26 -26 -29 3 -4 0 -7 -9 -7 -8 0 -52 -36 -98 -80 -46 -44 -84 -80 -86
-80 -1 0 -19 -16 -38 -35 -20 -19 -34 -35 -32 -35 3 0 -18 -21 -47 -47 -50
-46 -61 -59 -56 -65 1 -2 -17 -22 -41 -45 -24 -24 -40 -43 -37 -43 3 0 -12
-19 -33 -42 -22 -24 -52 -62 -67 -85 -15 -24 -31 -43 -35 -43 -4 0 -8 -5 -8
-11 0 -10 -11 -26 -60 -85 -5 -7 -6 -15 -3 -18 4 -3 2 -6 -4 -6 -6 0 -16 -14
-23 -31 -7 -17 -18 -36 -24 -42 -22 -23 -75 -115 -69 -121 4 -3 2 -6 -3 -6 -5
0 -18 -17 -29 -38 -10 -20 -26 -45 -34 -54 -8 -10 -11 -18 -8 -18 3 0 -15 -41
-39 -90 -25 -50 -51 -107 -59 -128 -7 -20 -21 -55 -31 -77 -10 -22 -18 -43
-18 -47 -1 -3 -4 -10 -8 -14 -5 -4 -8 -17 -8 -29 0 -11 -4 -25 -9 -30 -5 -6
-16 -37 -26 -70 -9 -33 -22 -76 -28 -95 -6 -19 -12 -39 -14 -45 -2 -5 -14 -55
-27 -110 -14 -55 -25 -100 -26 -100 -2 0 -9 -34 -14 -65 -2 -14 -5 -25 -6 -25
-1 0 -4 -20 -6 -45 -2 -25 -9 -76 -15 -115 -17 -111 -18 -114 -25 -230 -10
-141 -10 -437 -1 -585 7 -118 8 -127 26 -242 6 -36 13 -88 15 -115 2 -26 10
-70 16 -98 6 -27 13 -57 15 -66 2 -8 10 -39 19 -67 8 -29 15 -53 14 -55 0 -1
5 -22 12 -47 7 -25 13 -52 15 -60 2 -8 8 -27 14 -42 6 -16 7 -28 4 -28 -4 0
-2 -5 5 -12 7 -7 12 -21 12 -31 0 -10 6 -31 14 -45 7 -15 21 -52 31 -82 10
-30 40 -104 67 -165 27 -60 50 -114 51 -120 1 -5 5 -12 8 -15 3 -3 20 -33 37
-67 36 -71 55 -106 62 -113 3 -3 14 -21 24 -40 39 -72 99 -160 109 -160 6 0 8
-3 4 -6 -5 -5 34 -65 73 -111 6 -7 8 -13 5 -13 -3 0 3 -8 12 -19 10 -10 32
-35 48 -56 34 -42 48 -59 108 -129 64 -76 256 -266 268 -266 6 0 7 -4 4 -10
-3 -5 -1 -10 5 -10 6 0 24 -14 40 -30 16 -17 32 -30 35 -30 3 0 17 -10 31 -22
56 -51 64 -58 69 -58 3 0 19 -12 36 -28 16 -15 43 -34 58 -43 16 -8 36 -22 44
-30 36 -32 47 -39 62 -39 9 0 14 -4 11 -8 -3 -5 10 -15 29 -22 19 -8 35 -17
35 -22 0 -4 7 -8 15 -8 8 0 15 -4 15 -9 0 -5 8 -11 18 -15 9 -3 49 -24 87 -46
39 -22 95 -52 125 -67 30 -16 57 -30 60 -33 13 -13 52 -30 69 -30 11 0 22 -4
25 -8 3 -5 36 -21 73 -37 37 -15 82 -34 98 -40 28 -12 53 -21 65 -24 21 -4
111 -39 117 -44 3 -4 19 -7 34 -7 15 0 30 -4 33 -9 3 -4 27 -14 53 -21 27 -6
68 -18 93 -26 25 -7 63 -16 84 -20 22 -3 51 -10 65 -16 14 -5 27 -9 29 -9 15
5 62 -1 59 -6 -3 -5 5 -8 16 -9 21 -1 224 -32 257 -39 8 -2 41 -4 72 -4 l57
-1 0 -572 c0 -609 3 -701 31 -823 7 -27 14 -110 15 -184 2 -73 7 -141 10 -150
4 -9 9 -36 11 -61 3 -25 12 -70 21 -100 8 -30 14 -56 14 -58 -1 -1 5 -15 13
-31 9 -16 12 -31 9 -35 -4 -3 -1 -6 5 -6 10 0 28 -40 23 -49 -2 -2 1 -7 6 -10
5 -3 24 -31 43 -61 19 -30 46 -68 60 -85 39 -46 142 -145 152 -145 4 0 8 -7 8
-15 0 -8 7 -15 15 -15 9 0 25 -9 36 -19 19 -17 195 -113 202 -109 1 1 27 -6
57 -15 30 -8 84 -22 120 -29 53 -11 1357 -13 7340 -13 4001 0 7300 2 7330 4
30 2 60 8 65 12 6 4 32 9 58 10 26 2 47 6 47 11 0 4 8 8 18 8 10 0 45 13 78
28 32 16 74 35 92 43 17 8 32 17 32 21 0 5 6 8 13 8 7 0 23 9 35 20 12 11 24
20 27 20 3 0 18 11 32 24 15 14 31 22 37 19 6 -3 8 -3 4 2 -4 4 13 26 36 50
51 50 124 141 137 170 5 11 19 36 31 55 26 43 78 166 84 200 3 14 7 32 11 40
3 8 7 29 9 45 2 17 6 44 9 60 2 17 5 391 5 832 l0 803 1153 1 c633 0 1159 2
1167 4 8 2 35 8 60 15 25 6 57 14 73 17 15 3 27 9 27 14 0 5 9 9 19 9 11 0 23
4 26 10 3 5 15 10 25 10 10 0 20 4 22 9 2 5 9 11 17 13 8 2 22 10 31 18 10 8
34 29 55 45 55 43 91 82 125 134 16 25 33 51 38 57 17 20 33 54 25 54 -4 0 -2
4 5 8 7 5 14 19 17 32 2 12 10 39 17 59 7 20 13 38 13 41 1 3 5 25 9 50 10 54
12 4281 2 4390 -9 93 -11 111 -24 185 -6 33 -13 71 -16 85 -6 38 -17 82 -26
110 -4 14 -13 45 -21 70 -7 25 -15 50 -18 55 -3 6 -6 12 -6 15 -3 22 -57 162
-79 204 -8 16 -13 33 -10 38 3 4 1 8 -3 8 -5 0 -17 19 -28 42 -32 72 -176 303
-200 320 -6 5 -6 8 0 8 7 0 7 3 0 8 -5 4 -26 27 -46 52 -73 90 -194 216 -285
295 -31 28 -63 56 -70 63 -7 6 -17 12 -23 12 -6 0 -11 4 -11 8 0 4 -12 15 -27
24 -16 9 -41 28 -58 42 -16 14 -34 26 -38 26 -10 0 -71 42 -75 53 -2 4 -10 7
-18 7 -8 0 -24 9 -36 20 -12 11 -28 20 -35 20 -7 0 -13 5 -13 10 0 6 -7 10
-16 10 -16 0 -31 7 -149 67 -33 16 -107 45 -165 62 -58 18 -113 37 -122 42
-10 5 -27 9 -37 9 -11 0 -22 4 -25 8 -3 5 -26 9 -52 11 -26 1 -54 6 -63 10 -9
5 -34 11 -56 15 -39 6 -56 7 -185 22 -36 4 -698 8 -1472 8 -773 1 -1410 5
-1414 9 -5 4 13 28 39 53 26 24 47 49 47 54 0 6 4 10 10 10 5 0 29 20 53 45
24 25 42 45 40 45 -3 0 8 12 24 28 43 40 143 162 143 173 0 5 6 9 14 9 8 0 17
9 21 20 3 11 23 41 44 67 42 54 135 194 136 205 0 3 10 18 22 31 12 14 19 28
16 31 -4 3 -1 6 6 6 7 0 9 5 6 10 -3 6 -1 10 4 10 6 0 11 6 11 13 0 7 8 22 18
33 9 11 18 26 20 33 1 7 9 20 17 28 9 8 13 18 10 23 -3 4 2 13 10 20 8 7 15
20 15 30 0 10 7 23 15 30 8 7 15 21 15 31 0 11 4 19 8 19 5 0 15 18 22 40 7
22 16 40 20 40 4 0 7 6 7 13 0 6 7 28 15 47 32 71 56 136 60 155 1 11 6 22 9
25 5 5 59 161 63 185 1 6 7 26 14 45 6 19 13 46 16 60 7 38 13 61 24 105 14
53 21 86 31 167 5 37 11 70 14 75 3 5 8 36 12 68 4 33 8 71 11 85 11 65 17
224 17 420 -1 218 -8 329 -28 442 -3 14 -6 38 -9 54 -2 16 -6 40 -9 54 -4 14
-8 41 -11 60 -5 41 -28 145 -46 210 -11 43 -14 53 -24 100 -3 11 -8 25 -11 30
-4 6 -9 22 -11 37 -3 15 -8 31 -12 37 -3 6 -7 16 -8 21 -2 12 -42 122 -54 150
-5 11 -21 49 -36 85 -14 36 -36 86 -49 112 -13 25 -21 49 -18 52 4 3 2 6 -4 6
-10 0 -26 36 -24 53 1 4 -3 7 -8 7 -10 0 -21 27 -20 44 0 5 -3 12 -8 15 -5 3
-20 26 -34 51 -13 25 -26 47 -29 50 -3 3 -16 25 -29 50 -14 25 -31 51 -38 58
-7 7 -13 18 -13 24 0 5 -11 24 -25 42 -33 41 -37 46 -57 77 -9 14 -24 34 -33
43 -9 9 -14 16 -11 16 3 0 -2 8 -11 18 -10 10 -27 30 -38 46 -80 111 -286 333
-413 444 -20 18 -59 52 -87 76 -27 25 -66 55 -87 68 -21 13 -38 30 -38 38 0
18 92 120 109 120 6 0 10 4 8 8 -2 7 28 42 99 118 12 13 19 25 16 28 -3 3 2 6
11 6 9 0 17 4 17 8 0 5 8 18 18 29 9 12 33 40 52 63 19 24 42 50 51 59 9 9 40
48 69 86 29 39 59 74 66 78 8 4 14 12 14 18 0 10 10 24 48 64 13 14 20 25 17
25 -3 0 -1 6 5 12 24 29 46 57 60 78 8 13 22 30 30 39 9 9 21 28 29 42 7 14
26 41 42 60 16 19 32 42 35 52 3 10 16 29 30 44 13 14 22 28 19 31 -2 3 5 13
17 23 11 11 18 19 15 19 -6 0 31 61 53 87 5 7 10 15 10 18 0 3 15 29 33 58 18
29 41 69 52 90 11 20 23 37 27 37 5 0 7 3 6 8 -2 6 45 99 73 142 5 8 12 23 15
33 4 9 10 17 15 17 5 0 8 3 7 8 -3 10 64 145 77 154 5 4 7 8 2 8 -4 0 0 12 10
26 9 15 18 35 20 46 2 10 13 35 26 56 28 46 63 124 60 134 -2 5 2 8 8 8 5 0 8
4 4 9 -3 5 0 15 7 23 7 7 14 18 15 23 3 14 51 133 71 175 9 19 17 40 18 45 1
6 11 33 22 61 12 29 18 55 15 58 -4 3 -1 6 6 6 7 0 9 5 6 10 -3 6 -2 10 3 10
5 0 9 6 9 13 1 6 13 45 27 84 14 40 26 80 26 88 0 9 7 27 16 40 9 14 13 25 9
25 -4 0 -3 6 2 13 5 6 15 32 22 57 7 25 17 54 22 65 5 11 11 31 13 45 3 14 9
39 15 55 11 34 30 108 30 115 0 3 5 19 11 35 12 30 16 45 26 100 3 16 10 35
16 42 6 7 8 13 6 13 -6 0 12 93 28 143 4 12 8 33 10 47 1 14 9 50 17 80 9 30
18 71 20 90 3 19 6 35 7 35 2 0 8 25 14 70 4 22 9 51 13 65 3 14 7 32 8 40 3
28 16 114 25 165 5 28 12 64 15 80 3 17 10 62 15 100 5 39 14 104 20 145 12
84 16 113 25 185 3 28 9 66 12 85 16 92 7 474 -14 565 -2 11 -6 34 -8 50 -2
17 -12 58 -23 93 -11 34 -18 62 -16 62 3 0 -4 17 -14 38 -11 20 -22 50 -26 67
-10 39 -57 138 -70 147 -7 5 -7 8 -1 8 7 0 7 3 0 8 -5 4 -21 27 -34 52 -14 25
-30 49 -38 53 -7 4 -13 15 -13 22 0 8 -5 15 -12 15 -6 0 -9 3 -5 6 3 3 -4 16
-16 29 -41 42 -92 109 -90 117 2 4 -1 7 -5 5 -8 -2 -57 39 -95 81 -11 12 -26
22 -33 22 -6 0 -14 7 -18 15 -3 8 -12 15 -21 15 -8 0 -15 4 -15 9 0 24 -283
181 -326 181 -8 0 -14 5 -14 10 0 6 -10 10 -23 10 -13 0 -28 5 -35 12 -7 7
-12 9 -12 6 0 -4 -30 2 -67 13 -38 11 -86 22 -108 25 -22 2 -51 7 -65 10 -40
10 -298 13 -333 4 -18 -5 -50 -11 -72 -14 -58 -7 -224 -44 -238 -53 -7 -4 -14
-8 -17 -9 -6 -1 -32 -11 -72 -28 -16 -6 -28 -14 -28 -18 0 -5 -6 -8 -13 -8
-18 0 -67 -24 -67 -32 0 -5 -8 -8 -18 -8 -10 0 -27 -8 -38 -17 -25 -23 -74
-53 -96 -60 -10 -3 -20 -14 -23 -24 -4 -10 -13 -19 -21 -19 -15 0 -217 -197
-246 -240 -10 -14 -33 -47 -52 -75 -20 -27 -41 -62 -47 -77 -6 -16 -16 -28
-21 -28 -5 0 -7 -4 -4 -9 3 -5 -1 -14 -9 -21 -8 -7 -12 -16 -9 -21 3 -5 0 -9
-5 -9 -6 0 -11 -9 -11 -20 0 -11 -5 -20 -10 -20 -6 0 -9 -3 -8 -7 4 -15 -13
-53 -23 -53 -6 0 -8 -3 -5 -8 2 -4 -4 -25 -14 -47 -11 -22 -19 -46 -20 -52 0
-7 -5 -13 -12 -13 -6 0 -8 -3 -5 -6 4 -4 0 -19 -7 -33 -24 -45 -54 -115 -61
-138 -4 -13 -11 -23 -16 -23 -6 0 -7 -4 -4 -10 3 -5 1 -10 -6 -10 -7 0 -10 -3
-6 -6 6 -7 -91 -206 -105 -215 -5 -3 -9 -9 -8 -13 4 -12 -22 -66 -31 -66 -5 0
-9 -3 -8 -7 2 -17 -14 -53 -24 -53 -6 0 -7 -3 -4 -6 4 -4 -2 -19 -13 -34 -10
-14 -20 -33 -22 -41 -2 -8 -10 -21 -18 -29 -8 -8 -16 -22 -18 -30 -2 -8 -7
-17 -11 -20 -5 -3 -18 -25 -31 -49 -12 -25 -29 -51 -36 -59 -13 -13 -18 -27
-15 -44 0 -5 -6 -8 -14 -8 -8 0 -14 -3 -13 -7 3 -10 -43 -87 -54 -91 -5 -2 -6
-8 -2 -13 3 -5 0 -9 -5 -9 -6 0 -11 -9 -11 -20 0 -11 -4 -20 -9 -20 -5 0 -20
-17 -32 -37 -12 -21 -44 -66 -71 -100 -26 -35 -48 -66 -48 -71 0 -5 -8 -18
-17 -29 -10 -11 -29 -35 -43 -53 -14 -18 -29 -38 -35 -44 -26 -28 -65 -86 -65
-95 0 -6 -7 -11 -15 -11 -8 0 -15 -3 -15 -8 0 -4 -11 -19 -24 -34 -14 -14 -22
-29 -19 -32 4 -3 -1 -6 -11 -6 -9 0 -15 -4 -11 -9 3 -5 -5 -17 -17 -25 -12 -9
-19 -16 -14 -16 5 0 -1 -8 -12 -19 -12 -10 -22 -22 -22 -25 0 -4 -21 -27 -46
-52 -26 -24 -44 -44 -41 -44 3 0 -68 -74 -158 -165 -90 -91 -169 -165 -176
-165 -7 0 -10 -3 -6 -6 7 -8 -17 -34 -32 -34 -5 0 -13 -9 -16 -20 -3 -11 -12
-20 -19 -20 -8 0 -39 -25 -70 -56 -31 -31 -56 -52 -56 -48 0 4 -14 -7 -30 -25
-17 -17 -33 -31 -36 -31 -3 0 -11 -6 -18 -12 -7 -7 -28 -24 -46 -38 -18 -14
-42 -34 -52 -44 -10 -11 -18 -17 -18 -13 0 4 -14 -6 -31 -23 -18 -16 -36 -30
-40 -30 -8 0 -28 -14 -63 -45 -6 -5 -40 -30 -76 -54 -36 -25 -67 -47 -70 -50
-3 -4 -17 -12 -32 -20 -16 -8 -28 -18 -28 -23 0 -4 -5 -8 -10 -8 -6 0 -24 -9
-40 -20 -17 -11 -43 -29 -60 -40 -16 -11 -35 -20 -42 -20 -7 0 -19 -9 -26 -20
-7 -11 -21 -20 -32 -20 -11 0 -20 -4 -20 -8 0 -4 -22 -19 -50 -33 -27 -13 -50
-27 -50 -30 0 -4 -15 -12 -32 -20 -18 -7 -35 -15 -38 -19 -3 -3 -16 -11 -30
-18 -14 -6 -32 -16 -40 -20 -15 -8 -37 -20 -130 -69 -25 -12 -51 -23 -57 -23
-7 0 -13 -4 -13 -8 0 -5 -18 -15 -40 -22 -22 -7 -45 -19 -51 -27 -6 -7 -15
-10 -20 -7 -5 3 -9 0 -9 -5 0 -6 -11 -11 -25 -11 -14 0 -25 -4 -25 -10 0 -5
-5 -10 -10 -10 -6 0 -30 -9 -52 -20 -23 -11 -48 -20 -55 -20 -7 0 -13 -4 -13
-10 0 -5 -11 -10 -25 -10 -14 0 -25 -4 -25 -10 0 -5 -8 -10 -18 -10 -10 0 -28
-7 -40 -16 -12 -8 -22 -12 -22 -9 0 4 -16 -2 -35 -14 -20 -11 -49 -22 -65 -23
-16 -1 -27 -6 -24 -10 3 -4 -15 -12 -38 -18 -24 -6 -59 -19 -78 -28 -19 -9
-39 -17 -45 -18 -25 -7 -85 -31 -91 -37 -4 -4 -18 -7 -31 -7 -12 0 -23 -3 -23
-7 0 -11 -50 -33 -72 -33 -10 0 -26 -4 -36 -9 -23 -12 -60 -26 -102 -41 -19
-7 -45 -16 -57 -21 -13 -5 -33 -13 -45 -18 -13 -4 -44 -18 -71 -30 -26 -11
-54 -21 -62 -21 -8 0 -15 -4 -15 -10 0 -5 -9 -10 -20 -10 -11 0 -28 -4 -38 -9
-9 -5 -30 -14 -47 -21 -16 -7 -38 -16 -47 -21 -10 -5 -25 -9 -33 -9 -8 0 -15
-4 -15 -10 0 -5 -9 -10 -20 -10 -11 0 -34 -9 -52 -20 -18 -11 -40 -20 -49 -20
-9 0 -28 -9 -42 -20 -14 -11 -35 -20 -47 -20 -12 0 -28 -7 -37 -15 -8 -9 -28
-19 -44 -22 -16 -3 -29 -9 -29 -14 0 -5 -9 -9 -19 -9 -11 0 -23 -4 -26 -10 -3
-5 -15 -10 -26 -10 -10 0 -19 -3 -19 -8 0 -7 -15 -14 -87 -42 -18 -7 -33 -16
-33 -20 0 -4 -18 -13 -40 -20 -22 -7 -40 -17 -40 -22 0 -4 -9 -8 -19 -8 -11 0
-21 -3 -23 -7 -2 -5 -32 -23 -68 -42 -36 -18 -70 -38 -77 -43 -10 -8 -89 -51
-150 -82 -13 -6 -23 -14 -23 -18 0 -5 -5 -8 -11 -8 -5 0 -27 -11 -47 -25 -40
-27 -83 -32 -104 -12 -7 6 -31 21 -53 33 -65 33 -89 48 -105 64 -8 8 -21 16
-28 18 -8 1 -44 19 -80 40 -37 21 -98 53 -137 72 -38 19 -71 38 -73 43 -2 4
-10 7 -17 7 -8 0 -37 14 -65 30 -28 17 -54 30 -58 30 -4 0 -50 21 -102 47 -52
25 -103 48 -112 50 -9 1 -33 12 -53 23 -19 11 -44 20 -54 20 -11 0 -21 4 -23
8 -3 9 -146 71 -248 107 -36 13 -84 33 -107 44 -23 12 -47 21 -53 21 -5 0 -18
4 -28 9 -9 5 -55 24 -102 41 -47 17 -93 36 -102 41 -10 5 -25 9 -33 9 -14 0
-53 18 -65 30 -3 3 -14 6 -25 8 -11 2 -27 6 -35 9 -8 3 -19 7 -25 9 -5 1 -28
10 -50 20 -22 10 -51 19 -65 21 -14 3 -26 8 -28 14 -2 5 -12 9 -23 9 -10 0
-19 5 -19 10 0 6 -11 10 -24 10 -14 0 -28 5 -31 10 -3 6 -14 10 -24 10 -10 0
-45 14 -79 30 -34 17 -69 30 -77 30 -7 0 -17 5 -20 10 -3 6 -15 10 -26 10 -10
0 -19 3 -19 8 0 4 -29 18 -65 31 -36 14 -65 29 -65 33 0 4 -9 8 -20 8 -19 0
-59 18 -70 31 -3 3 -22 12 -42 20 -21 7 -38 17 -38 21 0 4 -3 7 -7 6 -8 -2
-104 42 -113 51 -3 3 -27 17 -55 31 -75 38 -159 84 -165 90 -3 3 -18 12 -35
20 -16 8 -32 17 -35 20 -3 3 -18 12 -35 20 -29 14 -84 49 -95 60 -3 3 -17 11
-32 19 -16 8 -28 18 -28 23 0 4 -5 8 -10 8 -6 0 -65 37 -132 83 -66 45 -128
87 -137 92 -9 6 -18 12 -21 15 -3 3 -34 27 -70 53 -36 27 -77 58 -92 70 -14
12 -43 36 -63 52 -20 17 -47 40 -60 53 -13 12 -26 22 -29 22 -3 0 -21 15 -39
33 -19 17 -63 57 -98 87 -92 79 -358 347 -351 354 3 3 -2 6 -11 6 -9 0 -17 3
-17 8 0 4 -13 21 -28 38 -15 17 -47 55 -72 84 -25 29 -56 64 -70 77 -14 12
-21 23 -17 23 4 0 -2 10 -15 23 -27 28 -67 76 -88 108 -8 12 -25 32 -37 45
-13 13 -23 26 -23 29 0 4 -16 27 -36 51 -20 24 -33 44 -29 44 5 0 -1 8 -11 18
-11 9 -42 51 -69 92 -27 41 -62 92 -78 113 -16 20 -25 37 -20 37 4 0 3 4 -2 8
-15 10 -85 118 -85 131 0 6 -4 11 -9 11 -5 0 -13 10 -17 23 -4 12 -19 40 -34
62 -14 22 -32 55 -39 73 -8 17 -16 32 -20 32 -3 0 -15 19 -26 43 -11 23 -26
48 -33 55 -6 8 -10 17 -7 22 3 5 1 10 -4 12 -12 4 -86 150 -84 166 0 6 -3 12
-8 12 -9 0 -46 81 -40 89 1 2 -2 7 -7 10 -10 6 -64 117 -68 140 -1 8 -7 17
-12 20 -5 3 -8 14 -6 24 1 9 -2 17 -6 17 -5 0 -18 24 -28 53 -11 28 -34 81
-50 117 -17 36 -31 70 -32 75 -1 6 -9 18 -17 28 -9 9 -13 17 -9 17 4 0 -3 15
-16 33 -13 17 -22 33 -21 34 4 5 -32 64 -60 101 -110 143 -133 169 -246 269
-20 18 -46 41 -59 52 -12 12 -23 20 -25 19 -1 -1 -23 12 -49 30 -26 18 -51 32
-56 32 -6 0 -12 3 -14 8 -8 17 -218 112 -249 112 -11 0 -19 4 -19 8 0 5 -6 9
-12 9 -7 1 -40 8 -73 17 -33 9 -82 19 -110 22 -27 4 -53 8 -57 11 -11 6 -257
12 -298 7z"/>
</g>
</svg>
